# xmcd
#
# Track frame offsets:
#	150
#	17152
#	30277
#	39564
#	67724
#	82572
#	107116
#	126492
#	148835
#	167702
#	181968
#	214666
#
# Disc length: 3125 seconds
#
# Revision: 0
# Processed by: cddbd v1.5.1PL2 Copyright (c) Steve Scherf et al.
# Submitted via: dBpowerAMP V4.0
#
DISCID=970c330c
DTITLE=Old Number Eight - Deadman's Hand
DYEAR=1900
DGENRE=Country
TTITLE0=It Ain't There No More
TTITLE1=Sailor Song (Can't Get Over)
TTITLE2=Don't Even Have A Song to Sing
TTITLE3=Seraphime
TTITLE4=Runs Me to the Ground
TTITLE5=Down to the River
TTITLE6=Noah
TTITLE7=Goliath
TTITLE8=Where Oh Where
TTITLE9=Drunkard #1
TTITLE10=Blue Morning
TTITLE11=Come Home
EXTD=
EXTT0=
EXTT1=
EXTT2=
EXTT3=
EXTT4=
EXTT5=
EXTT6=
EXTT7=
EXTT8=
EXTT9=
EXTT10=
EXTT11=
PLAYORDER=
